<?xml version="1.0" encoding="UTF-8" standalone="no"?>
<svg
   xmlns:dc="http://purl.org/dc/elements/1.1/"
   xmlns:cc="http://creativecommons.org/ns#"
   xmlns:rdf="http://www.w3.org/1999/02/22-rdf-syntax-ns#"
   xmlns:svg="http://www.w3.org/2000/svg"
   xmlns="http://www.w3.org/2000/svg"
   xmlns:sodipodi="http://sodipodi.sourceforge.net/DTD/sodipodi-0.dtd"
   xmlns:inkscape="http://www.inkscape.org/namespaces/inkscape"
   width="600"
   height="600"
   viewBox="0 0 158.74999 158.75"
   version="1.1"
   id="svg1005"
   inkscape:export-filename="/home/qzr/Desktop/Information Technologies/C++ Source Codes/wxWidgets/Minesweeper_Alpha/Resources/Hat and Scope (Forfeit Dial TL).png"
   inkscape:export-xdpi="133.33299"
   inkscape:export-ydpi="133.33299"
   inkscape:version="1.0.1 (1.0.1+r73)"
   sodipodi:docname="Hat and Scope (Forfeit Dial TL).svg">
  <defs
     id="defs999">
    <inkscape:path-effect
       effect="bspline"
       id="path-effect1608"
       is_visible="true"
       lpeversion="1"
       weight="33.333333"
       steps="2"
       helper_size="0"
       apply_no_weight="true"
       apply_with_weight="true"
       only_selected="false" />
    <inkscape:path-effect
       effect="bspline"
       id="path-effect1604"
       is_visible="true"
       lpeversion="1"
       weight="33.333333"
       steps="2"
       helper_size="0"
       apply_no_weight="true"
       apply_with_weight="true"
       only_selected="false" />
  </defs>
  <sodipodi:namedview
     id="base"
     pagecolor="#ffffff"
     bordercolor="#666666"
     borderopacity="1.0"
     inkscape:pageopacity="0.0"
     inkscape:pageshadow="2"
     inkscape:zoom="0.76"
     inkscape:cx="379.15636"
     inkscape:cy="388.97835"
     inkscape:document-units="mm"
     inkscape:current-layer="layer1"
     inkscape:document-rotation="0"
     showgrid="false"
     units="px"
     inkscape:window-width="1439"
     inkscape:window-height="1023"
     inkscape:window-x="485"
     inkscape:window-y="32"
     inkscape:window-maximized="0">
    <inkscape:grid
       type="xygrid"
       id="grid1570" />
  </sodipodi:namedview>
  <metadata
     id="metadata1002">
    <rdf:RDF>
      <cc:Work
         rdf:about="">
        <dc:format>image/svg+xml</dc:format>
        <dc:type
           rdf:resource="http://purl.org/dc/dcmitype/StillImage" />
        <dc:title></dc:title>
      </cc:Work>
    </rdf:RDF>
  </metadata>
  <g
     inkscape:label="Layer 1"
     inkscape:groupmode="layer"
     id="layer1">
    <path
       style="fill:#554400;stroke:none;stroke-width:0.621608;stroke-linejoin:bevel;stroke-miterlimit:4;stroke-dasharray:none;stroke-opacity:1"
       id="path1576"
       cx="110.75936"
       cy="54.880192"
       rx="3.7296252"
       ry="3.8682544"
       d="" />
    <g
       id="g1673"
       transform="translate(114.19698,-16.090923)">
      <path
         id="path1568"
         style="fill:none;stroke:#000000;stroke-width:0.433;stroke-linejoin:bevel;stroke-miterlimit:4;stroke-dasharray:none;stroke-opacity:1"
         d="m 163.87599,111.2524 c 0,7.33412 -2.48016,13.10177 -2.48016,13.10177 H 60.854167 c 0,0 -2.481162,-5.76764 -2.481162,-13.10177 0,-29.336493 23.617651,-53.118418 52.751495,-53.118416 29.13384,1e-6 52.75149,23.781925 52.75149,53.118416 z"
         sodipodi:nodetypes="sccsss" />
      <path
         style="fill:none;stroke:#000000;stroke-width:0.264583px;stroke-linecap:butt;stroke-linejoin:miter;stroke-opacity:1"
         d="m 111.125,58.208333 c -10.58333,10.583333 -21.166668,21.166666 -24.253369,32.191244 -3.0867,11.024583 1.322933,22.489623 5.732535,33.954593"
         id="path1602"
         inkscape:path-effect="#path-effect1604"
         inkscape:original-d="M 111.125,58.208333 C 100.54193,68.79193 89.958597,79.375264 79.374999,89.958332 83.785074,101.4241 88.194707,112.88915 92.604166,124.35417" />
      <path
         style="fill:none;stroke:#000000;stroke-width:0.264583px;stroke-linecap:butt;stroke-linejoin:miter;stroke-opacity:1"
         d="m 111.125,58.208333 c 8.81971,8.81971 17.63915,17.639153 20.28479,28.663549 2.64565,11.024395 -0.88206,24.253298 -4.40979,37.482288"
         id="path1606"
         inkscape:path-effect="#path-effect1608"
         inkscape:original-d="m 111.125,58.208333 c 8.81971,8.819708 17.63915,17.639154 26.45833,26.458333 C 134.05575,97.896361 130.52804,111.12526 127,124.35417" />
    </g>
    <g
       id="g1658"
       transform="translate(152.24174,-17.910961)">
      <ellipse
         style="fill:none;stroke:#000000;stroke-width:0.458307;stroke-linejoin:bevel;stroke-miterlimit:4;stroke-dasharray:none;stroke-opacity:1"
         id="path1610"
         cx="68.961998"
         cy="179.89854"
         rx="31.567013"
         ry="31.427916" />
      <ellipse
         style="fill:none;stroke:#000000;stroke-width:0.534956;stroke-linejoin:bevel;stroke-miterlimit:4;stroke-dasharray:none;stroke-opacity:1"
         id="path1610-2"
         cx="68.896019"
         cy="179.93561"
         rx="36.886337"
         ry="36.644482" />
    </g>
    <g
       id="g1703"
       transform="translate(-24.578705,-22.760729)">
      <g
         id="g1692"
         transform="translate(-12.041805,-7.4370799)">
        <path
           style="fill:#808000;stroke:none;stroke-width:0.465593;stroke-linejoin:bevel;stroke-miterlimit:4;stroke-dasharray:none;stroke-opacity:1"
           d="m 92.079777,123.69812 c -0.13665,-0.35207 -0.52916,-1.34426 -0.87226,-2.20486 -1.34957,-3.38522 -3.49124,-9.98176 -4.27055,-13.15369 -3.23662,-13.173531 -0.71955,-22.158456 9.72485,-34.713824 2.61895,-3.148282 13.552743,-14.722091 13.907973,-14.722091 0.30329,0 8.03742,8.175424 10.49652,11.095429 6.7001,7.955888 9.73259,14.765967 10.38821,23.328852 0.21678,2.831277 -0.21723,8.413174 -1.01599,13.066904 -0.53402,3.11126 -2.84611,13.00648 -3.82932,16.38863 l -0.45199,1.55477 H 109.24273 92.328227 Z"
           id="path1632" />
        <path
           style="fill:#786721;fill-opacity:1;stroke:none;stroke-width:0.465593;stroke-linejoin:bevel;stroke-miterlimit:4;stroke-dasharray:none;stroke-opacity:1"
           d="m 60.1383,122.55715 c -2.64834,-8.25403 -2.25835,-18.19656 1.10093,-28.067503 5.96402,-17.524756 21.1562,-30.958348 39.09073,-34.565751 2.7025,-0.543589 9.20011,-1.317561 9.37939,-1.117243 0.0463,0.05171 -2.47297,2.773553 -5.59832,6.048539 -9.60341,10.063213 -13.75784,15.61437 -16.52213,22.076908 -1.74273,4.074257 -2.29933,6.899833 -2.29611,11.65607 0.004,6.26487 1.09984,11.17544 4.67141,20.93787 0.92871,2.53853 1.68857,4.6911 1.68857,4.78349 0,0.0924 -6.95212,0.16798 -15.44916,0.16798 H 60.75446 Z"
           id="path1650" />
        <path
           style="fill:#786721;fill-opacity:1;stroke:none;stroke-width:0.465593;stroke-linejoin:bevel;stroke-miterlimit:4;stroke-dasharray:none;stroke-opacity:1"
           d="m 127.80817,119.99965 c 2.47052,-9.55498 3.52571,-15.15827 3.9147,-20.78803 0.50749,-7.34458 -0.45302,-13.09467 -3.12002,-18.67812 -2.63512,-5.51669 -5.94858,-9.91455 -13.24199,-17.57574 -2.27168,-2.38623 -3.95091,-4.3386 -3.73163,-4.3386 0.21929,0 1.7972,0.13621 3.50647,0.30268 14.67366,1.42914 28.20006,8.97692 36.96994,20.62936 9.53174,12.66471 13.02254,29.38493 8.9496,42.86668 l -0.58016,1.92036 h -16.89435 -16.89434 z"
           id="path1652" />
        <path
           id="rect1573"
           style="fill:#554400;stroke:none;stroke-width:0.382146;stroke-linejoin:bevel;stroke-miterlimit:4;stroke-dasharray:none;stroke-opacity:1"
           d="M 56.595401,124.32873 H 186.29129 v 0 c 2.64686,2.06004 2.64686,2.06004 0,4.12007 v 0 h -129.695889 -1e-6 z"
           sodipodi:nodetypes="ccccccccc" />
        <circle
           style="fill:#554400;fill-opacity:1;stroke:none;stroke-width:1.066;stroke-linejoin:bevel;stroke-miterlimit:4;stroke-dasharray:none;stroke-opacity:1"
           id="path1685"
           cx="110.54857"
           cy="53.367172"
           r="5.2916665" />
      </g>
      <g
         id="g1668"
         transform="matrix(0.9108293,0.2132938,-0.21337459,0.9135893,42.3328,-55.433441)">
        <path
           id="rect1627"
           style="fill:#666666;stroke:none;stroke-width:0.37505;stroke-linejoin:bevel;stroke-miterlimit:4;stroke-dasharray:none;stroke-opacity:1"
           d="m 103.56329,183.04698 h 89.98674 v 0 c 3.1608,1.05832 3.1608,6.34999 0,7.93751 v 0 h -89.98674 v 0 z"
           sodipodi:nodetypes="ccccccccc" />
        <path
           style="fill:#1a1a1a;fill-opacity:1;stroke:#1a1a1a;stroke-width:1.066;stroke-linejoin:bevel;stroke-miterlimit:4;stroke-dasharray:none;stroke-opacity:1"
           d="m 61.026247,222.75716 c -4.51917,-0.8161 -9.645959,-2.92054 -13.968031,-5.73359 -2.889022,-1.88034 -8.468331,-7.63847 -10.341737,-10.67321 -9.174882,-14.86242 -6.80724,-33.46825 5.774457,-45.37787 5.391957,-5.10394 12.051244,-8.40957 19.361872,-9.61112 4.362249,-0.71697 10.350648,-0.43762 14.732767,0.68727 11.911103,3.05757 21.355745,11.74386 25.479825,23.43395 1.35092,3.82929 1.85712,6.93171 1.86956,11.45813 0.0123,4.4741 -0.35918,7.01124 -1.60367,10.95318 -4.07157,12.89672 -15.162265,22.55446 -28.590001,24.89606 -3.052358,0.53229 -9.680533,0.51518 -12.715042,-0.0328 z m 10.261436,-4.11452 c 7.157273,-0.79808 13.734497,-3.96024 18.890448,-9.08203 4.169971,-4.14234 6.867339,-8.85896 8.449719,-14.7752 0.63454,-2.37242 0.7317,-3.32918 0.75327,-7.41794 0.0279,-5.29049 -0.31902,-7.39798 -1.91913,-11.65794 -4.928988,-13.12245 -18.919255,-21.77026 -32.772438,-20.25763 -8.275154,0.90356 -14.788695,4.06805 -20.286562,9.85587 -3.614179,3.8048 -6.170679,8.37921 -7.64725,13.68343 -0.729898,2.62199 -0.7874,3.21292 -0.7874,8.09177 0,4.88551 0.05681,5.46738 0.791705,8.1082 3.065521,11.01591 11.372837,19.40717 22.247095,22.47189 4.198007,1.18314 7.845674,1.4741 12.280543,0.97958 z"
           id="path1654" />
      </g>
    </g>
  </g>
</svg>
