<?xml version="1.0" encoding="UTF-8" standalone="no"?>
<svg
   xmlns:dc="http://purl.org/dc/elements/1.1/"
   xmlns:cc="http://creativecommons.org/ns#"
   xmlns:rdf="http://www.w3.org/1999/02/22-rdf-syntax-ns#"
   xmlns:svg="http://www.w3.org/2000/svg"
   xmlns="http://www.w3.org/2000/svg"
   xmlns:sodipodi="http://sodipodi.sourceforge.net/DTD/sodipodi-0.dtd"
   xmlns:inkscape="http://www.inkscape.org/namespaces/inkscape"
   width="400"
   height="400"
   viewBox="0 0 105.83333 105.83333"
   version="1.1"
   id="svg961"
   inkscape:export-filename="/home/qzr/Desktop/Information Technologies/C++ Source Codes/wxWidgets/Minesweeper_Alpha/Resources/Restart.png"
   inkscape:export-xdpi="133.33299"
   inkscape:export-ydpi="133.33299"
   inkscape:version="1.0.1 (1.0.1+r73)"
   sodipodi:docname="Restart.svg">
  <defs
     id="defs955" />
  <sodipodi:namedview
     id="base"
     pagecolor="#ffffff"
     bordercolor="#666666"
     borderopacity="1.0"
     inkscape:pageopacity="0.0"
     inkscape:pageshadow="2"
     inkscape:zoom="0.76"
     inkscape:cx="246.29977"
     inkscape:cy="215.2703"
     inkscape:document-units="mm"
     inkscape:current-layer="layer1"
     inkscape:document-rotation="0"
     showgrid="true"
     units="px"
     inkscape:window-width="1439"
     inkscape:window-height="1023"
     inkscape:window-x="377"
     inkscape:window-y="27"
     inkscape:window-maximized="0">
    <inkscape:grid
       type="xygrid"
       id="grid1542" />
  </sodipodi:namedview>
  <metadata
     id="metadata958">
    <rdf:RDF>
      <cc:Work
         rdf:about="">
        <dc:format>image/svg+xml</dc:format>
        <dc:type
           rdf:resource="http://purl.org/dc/dcmitype/StillImage" />
        <dc:title></dc:title>
      </cc:Work>
    </rdf:RDF>
  </metadata>
  <g
     inkscape:label="Layer 1"
     inkscape:groupmode="layer"
     id="layer1">
    <path
       style="fill:#2a7fff;stroke:#000000;stroke-width:2.759;stroke-linejoin:bevel;stroke-miterlimit:4;stroke-dasharray:none;stroke-opacity:0"
       d="M 47.793842,104.14651 C 33.006812,101.75139 20.484763,92.626416 13.843094,79.406197 c -2.509358,-4.99487 -3.621672,-8.66865 -4.4817767,-14.80252 -0.692528,-4.9388 -0.693161,-5.76308 -0.0084,-10.94827 C 11.597753,36.657263 20.933528,23.564603 36.389375,15.738979 c 1.756286,-0.889243 3.757766,-1.830374 4.447736,-2.091399 0.689969,-0.261022 1.25449,-0.656722 1.25449,-0.879327 0,-0.222607 -3.027884,-2.819566 -6.728627,-5.771017 l -6.728629,-5.366279 7.983117,0.282271 c 4.390715,0.155246 15.013998,0.525023 23.6073,0.821721 l 15.62418,0.539454 -0.77751,1.174536 c -0.42763,0.64599 -2.75641,4.253735 -5.17507,8.017203 -2.41865,3.76347 -6.06376,9.408675 -8.10022,12.544901 -2.03647,3.136225 -5.298545,8.209711 -7.249053,11.274414 -1.950514,3.0647 -3.689327,5.425424 -3.864028,5.246047 -0.174702,-0.179374 -0.953408,-3.086153 -1.73046,-6.459508 -0.777052,-3.373353 -1.482934,-6.203479 -1.568622,-6.28917 -0.214619,-0.214619 -4.394835,1.459394 -7.01218,2.808105 -4.738659,2.441819 -9.475798,7.384362 -11.959286,12.477848 -4.084701,8.377488 -3.541234,19.428018 1.407189,28.612878 2.066449,3.83558 8.002902,9.60819 12.043809,11.71141 5.484879,2.85479 9.228939,3.752519 15.510058,3.718929 7.629763,-0.0408 12.164503,-1.624869 17.640523,-6.162179 9.4969,-7.86891 10.3144,-24.53892 1.68337,-34.326197 -1.78545,-2.024623 -1.86988,-2.219087 -0.84583,-1.948175 1.91451,0.506487 8.19138,1.401289 8.39424,1.196647 0.10499,-0.105923 -0.19737,-2.848544 -0.67193,-6.094714 -0.47456,-3.24617 -0.79666,-5.968296 -0.71579,-6.049169 0.0809,-0.08087 1.5138,1.105345 3.18429,2.636042 3.630412,3.326611 7.120552,8.477199 8.932072,13.181536 9.417986,24.45759 -6.37614,49.490983 -33.834472,53.626943 -5.227219,0.78735 -8.36137,0.7812 -13.346215,-0.0262 z"
       id="path1540" />
  </g>
</svg>
