<?xml version="1.0" encoding="UTF-8" standalone="no"?>
<svg
   xmlns:dc="http://purl.org/dc/elements/1.1/"
   xmlns:cc="http://creativecommons.org/ns#"
   xmlns:rdf="http://www.w3.org/1999/02/22-rdf-syntax-ns#"
   xmlns:svg="http://www.w3.org/2000/svg"
   xmlns="http://www.w3.org/2000/svg"
   xmlns:sodipodi="http://sodipodi.sourceforge.net/DTD/sodipodi-0.dtd"
   xmlns:inkscape="http://www.inkscape.org/namespaces/inkscape"
   width="780"
   height="780"
   viewBox="0 0 206.37499 206.375"
   version="1.1"
   id="svg8"
   inkscape:export-filename="Mushroom Cloud (EndGDial-TL).png"
   inkscape:export-xdpi="133.33299"
   inkscape:export-ydpi="133.33299"
   inkscape:version="1.0.1 (1.0.1+r73)"
   sodipodi:docname="Mushroom Cloud (EndGDial-TL).svg">
  <defs
     id="defs2">
    <inkscape:path-effect
       effect="bspline"
       id="path-effect925"
       is_visible="true"
       lpeversion="1"
       weight="33.333333"
       steps="2"
       helper_size="0"
       apply_no_weight="true"
       apply_with_weight="true"
       only_selected="false" />
    <inkscape:path-effect
       effect="bspline"
       id="path-effect885"
       is_visible="true"
       lpeversion="1"
       weight="33.333333"
       steps="2"
       helper_size="0"
       apply_no_weight="true"
       apply_with_weight="true"
       only_selected="false" />
    <inkscape:path-effect
       effect="bspline"
       id="path-effect881"
       is_visible="true"
       lpeversion="1"
       weight="33.333333"
       steps="2"
       helper_size="0"
       apply_no_weight="true"
       apply_with_weight="true"
       only_selected="false" />
    <inkscape:path-effect
       effect="bspline"
       id="path-effect862"
       is_visible="true"
       lpeversion="1"
       weight="33.333333"
       steps="2"
       helper_size="0"
       apply_no_weight="true"
       apply_with_weight="true"
       only_selected="false" />
    <inkscape:path-effect
       effect="spiro"
       id="path-effect851"
       is_visible="true"
       lpeversion="1" />
    <inkscape:path-effect
       effect="spiro"
       id="path-effect847"
       is_visible="true"
       lpeversion="1" />
    <inkscape:path-effect
       effect="spiro"
       id="path-effect843"
       is_visible="true"
       lpeversion="1" />
    <inkscape:path-effect
       effect="spiro"
       id="path-effect839"
       is_visible="true"
       lpeversion="1" />
    <inkscape:path-effect
       effect="spiro"
       id="path-effect835"
       is_visible="true"
       lpeversion="1" />
  </defs>
  <sodipodi:namedview
     id="base"
     pagecolor="#ffffff"
     bordercolor="#666666"
     borderopacity="1.0"
     inkscape:pageopacity="0.0"
     inkscape:pageshadow="2"
     inkscape:zoom="0.9983453"
     inkscape:cx="386.94599"
     inkscape:cy="365.80205"
     inkscape:document-units="mm"
     inkscape:current-layer="layer1"
     inkscape:document-rotation="0"
     showgrid="false"
     units="px"
     inkscape:window-width="1439"
     inkscape:window-height="1023"
     inkscape:window-x="310"
     inkscape:window-y="27"
     inkscape:window-maximized="0">
    <inkscape:grid
       type="xygrid"
       id="grid927" />
  </sodipodi:namedview>
  <metadata
     id="metadata5">
    <rdf:RDF>
      <cc:Work
         rdf:about="">
        <dc:format>image/svg+xml</dc:format>
        <dc:type
           rdf:resource="http://purl.org/dc/dcmitype/StillImage" />
        <dc:title></dc:title>
      </cc:Work>
    </rdf:RDF>
  </metadata>
  <g
     inkscape:label="Layer 1"
     inkscape:groupmode="layer"
     id="layer1">
    <g
       id="g858"
       transform="translate(-28.127355,-5.0449344)" />
    <path
       style="fill:none;stroke:#000000;stroke-width:0.264583px;stroke-linecap:butt;stroke-linejoin:miter;stroke-opacity:1"
       d="m 255.48383,236.35842 c 0,0 -7.46418,1.27228 -12.05478,3.63724 -4.5906,2.36495 -6.68128,5.86958 -6.68122,7.41267 -2.6e-4,6.17236 15.25316,11.17608 34.06924,11.17606 18.81608,2e-5 34.06949,-5.0037 34.06923,-11.17606 6e-5,-1.54309 -2.09357,-4.93331 -6.69095,-7.04442 -4.59737,-2.1111 -11.69848,-2.9431 -11.69848,-2.9431"
       id="path1015" />
    <path
       style="fill:none;stroke:#000000;stroke-width:0.264583px;stroke-linecap:butt;stroke-linejoin:miter;stroke-opacity:1"
       d="m -64.008247,151.51803 c -4.291964,-0.13521 -8.616208,1.0048 -12.283679,3.23838 -3.667472,2.23358 -6.664694,5.55253 -8.514072,9.42797 -1.84937,3.87544 -2.54411,8.29314 -1.9735,12.54915 0.57061,4.25601 2.40447,8.33469 5.209363,11.58613 2.871224,3.32833 6.692889,5.75003 10.773212,7.38486 4.080324,1.63483 8.426079,2.51493 12.783645,3.09227 17.986077,2.38301 36.624563,-0.37724 53.1479625,-7.8709"
       id="path1013" />
    <path
       style="fill:none;stroke:#000000;stroke-width:0.264583px;stroke-linecap:butt;stroke-linejoin:miter;stroke-opacity:1"
       d="m 22.306352,-36.697303 c -0.07832,-8.01575 3.620684,-15.988276 9.791821,-21.104473 4.60685,-3.819321 10.509996,-6.045456 16.491643,-6.219164 5.981647,-0.173707 12.00403,1.70611 16.824756,5.251653"
       id="path1011" />
    <path
       style="fill:none;stroke:#000000;stroke-width:0.264583px;stroke-linecap:butt;stroke-linejoin:miter;stroke-opacity:1"
       d="m 86.847671,-47.516747 c 3.370203,-5.962172 8.308113,-11.028989 14.181479,-14.551677 5.87336,-3.522688 12.66847,-5.493024 19.51525,-5.658719 6.81349,-0.16489 13.66242,1.457381 19.67802,4.661028 6.0156,3.203647 11.18409,7.981337 14.84986,13.727024"
       id="path1009" />
    <path
       style="fill:none;stroke:#000000;stroke-width:0.264583px;stroke-linecap:butt;stroke-linejoin:miter;stroke-opacity:1"
       d="m 189.43823,-48.059244 c 7.07185,-4.358217 15.9299,-5.71262 23.98094,-3.666707 6.42718,1.633262 12.29742,5.38458 16.47951,10.531073 4.18209,5.146488 6.65316,11.660012 6.93701,18.285392"
       id="path1007" />
    <path
       style="fill:none;stroke:#000000;stroke-width:0.264583px;stroke-linecap:butt;stroke-linejoin:miter;stroke-opacity:1"
       d="m 288.48804,119.6329 c 4.7527,0.38105 9.32118,2.70199 12.4316,6.31566 3.11042,3.61367 4.72547,8.47674 4.39483,13.23321 -0.23767,3.41908 -1.44607,6.74248 -3.30649,9.62092 -1.86041,2.87844 -4.35959,5.31951 -7.17788,7.26986 -5.63657,3.90068 -12.42263,5.80464 -19.18943,6.89855 -17.01206,2.75013 -34.77605,0.68402 -50.70279,-5.89718"
       id="path1005" />
    <path
       style="fill:none;stroke:#000000;stroke-width:0.264583px;stroke-linecap:butt;stroke-linejoin:miter;stroke-opacity:1"
       d="m -18.032546,199.43612 c 2.870813,18.68138 6.083722,35.7923 4.875869,54.25023 m -0.330401,4.40146 c -0.270464,2.30068 -1.244574,8.67869 -1.618589,10.97369 -0.748029,4.59001 -1.68723,9.16954 -2.75388,13.74207 -2.1333,9.14508 -4.776395,18.2622 -7.419505,27.37938"
       id="path1003"
       sodipodi:nodetypes="cccssc" />
    <path
       style="fill:none;stroke:#000000;stroke-width:0.264583px;stroke-linecap:butt;stroke-linejoin:miter;stroke-opacity:1"
       d="m 259.32412,261.62882 c -1.43541,9.34069 -2.8708,18.68131 -3.79636,27.99399 -0.46278,4.65635 -0.79811,9.30571 -0.94224,13.9446 -0.0721,2.31945 0.0759,7.17789 0.10727,9.49167 m 0.11138,4.58639 c 1.20785,18.45792 6.4803,36.49583 11.76652,54.73019"
       id="path1001"
       sodipodi:nodetypes="cssccc" />
    <path
       style="fill:none;stroke:#000000;stroke-width:0.264583px;stroke-linecap:butt;stroke-linejoin:miter;stroke-opacity:1"
       d="m -38.617543,134.44732 c 0.679266,8.26193 1.358521,16.52371 1.783669,24.52947 0.21257,4.00289 0.36162,7.94176 0.41538,11.78465 0.0269,1.92145 0.0299,4.31633 0.005,6.18578 m -0.11216,4.03799 c -0.674324,14.47572 -3.430701,27.88779 -6.137703,40.31495"
       id="path999"
       sodipodi:nodetypes="cssccc" />
    <path
       style="fill:none;stroke:#000000;stroke-width:0.264583px;stroke-linecap:butt;stroke-linejoin:miter;stroke-opacity:1"
       d="m 227.067,117.03658 c -0.67927,8.26193 -1.35852,16.52371 -1.78367,24.52947 -0.21257,4.00289 -0.35239,7.22462 -0.40615,11.06751 m 0.0607,4.44036 c 0.0247,1.86945 0.003,5.67604 0.0868,7.48551 0.67432,14.47572 3.38132,26.90283 6.08832,39.32999"
       id="path883-7"
       sodipodi:nodetypes="csccsc" />
    <path
       style="fill:#cccccc;stroke:#000000;stroke-width:0.264583px;stroke-linecap:butt;stroke-linejoin:miter;stroke-opacity:1"
       d="m 98.209273,327.11794 53.749337,2.68905 v 0"
       id="path941" />
    <path
       style="fill:none;stroke:#000000;stroke-width:0.328594px;stroke-linecap:butt;stroke-linejoin:miter;stroke-opacity:1"
       d="m 255.43306,236.89025 c 0,0 -12.16104,1.35649 -17.69731,4.38113 -5.53628,3.02461 -8.05765,7.50679 -8.05757,9.48031 -3.2e-4,7.89404 18.39534,14.29347 41.08755,14.29345 22.69222,2e-5 41.08784,-6.39941 41.08754,-14.29345 8e-5,-1.97352 -2.52486,-6.30938 -8.06929,-9.00935 -5.54446,-2.69997 -17.28711,-4.32153 -17.28711,-4.32153"
       id="path1015-3"
       sodipodi:nodetypes="cscscsc" />
    <g
       id="g1081">
      <path
         style="fill:#b3b3b3;stroke:none;stroke-width:0.412644;stroke-linejoin:bevel;stroke-opacity:1"
         d="m 102.84256,191.21521 c -13.847857,-0.71048 -25.222137,-1.34336 -25.276157,-1.40639 -0.054,-0.063 0.83696,-3.39909 1.97996,-7.41346 4.45058,-15.63103 7.15964,-27.66446 8.8157,-39.15862 l 0.69059,-4.7932 0.93268,0.16099 c 0.97881,0.16895 7.52067,0.75095 8.491273,0.75543 0.519507,0.002 0.548167,0.19998 0.36436,2.51158 -0.735393,9.24833 -1.856603,16.92232 -4.138853,28.32771 -1.62166,8.10417 -1.86645,9.7716 -1.36019,9.26534 0.0787,-0.0787 0.96138,-4.24128 1.96161,-9.25028 2.2476,-11.25564 3.315723,-18.61134 4.13773,-28.49483 l 0.19603,-2.35692 h 4.792557 4.79256 l 0.18962,5.85428 c 0.21871,6.75236 1.04822,14.5217 2.36218,22.12465 0.96137,5.56274 3.57293,18.29606 3.79878,18.52191 0.49919,0.49919 0.29285,-1.00739 -0.93854,-6.85261 -2.97893,-14.1406 -4.32317,-23.92685 -4.61755,-33.61649 l -0.18171,-5.98094 1.33763,-0.16312 c 2.61877,-0.31936 7.39366,-0.77565 7.45429,-0.71234 0.0339,0.0354 0.21605,1.63817 0.4048,3.56173 1.13668,11.58416 3.67066,23.55912 8.88079,41.96839 1.1598,4.098 2.18094,7.6904 2.26921,7.98311 0.13447,0.446 -0.0276,0.52603 -1.00047,0.49404 -0.63852,-0.021 -12.49101,-0.61948 -26.33888,-1.32996 z"
         id="path1054" />
      <path
         style="fill:#999999;stroke:none;stroke-width:0.412644;stroke-linejoin:bevel;stroke-opacity:1"
         d="m 96.028543,136.22604 c -1.338122,-0.1197 -3.288284,-0.31875 -4.333692,-0.44233 l -1.90074,-0.22471 v -7.51232 c 0,-8.02801 -0.27744,-12.71204 -1.226733,-20.71101 -0.880131,-7.416166 -3.674234,-25.653106 -3.981495,-25.986946 -0.429014,-0.46612 -0.32508,0.61748 0.669533,6.98053 0.514496,3.29148 0.890845,6.02177 0.836327,6.06732 -0.518295,0.43303 -9.531201,3.74004 -12.790852,4.69322 -8.566962,2.505116 -15.704839,3.620776 -24.897707,3.891536 -12.821335,0.37762 -24.004941,-1.45501 -30.946565,-5.071156 -8.4362387,-4.39474 -13.1198833,-11.6695 -13.1198833,-20.37814 0,-6.09397 2.0456694,-10.91666 6.5173103,-15.36464 4.052986,-4.03155 8.367176,-6.05302 13.742423,-6.43922 l 2.468786,-0.17737 0.195686,-2.34644 c 0.9465,-11.349376 8.476554,-20.557268 19.562223,-23.921083 2.331516,-0.707472 3.222207,-0.814075 6.932872,-0.829773 3.220349,-0.01363 4.770059,0.118642 6.360808,0.542878 2.858312,0.76228 5.844775,2.0252 7.903913,3.342412 0.942327,0.6028 1.824736,1.096 1.960907,1.096 0.136168,0 0.959247,-1.092632 1.829064,-2.428074 1.972675,-3.028677 6.084097,-7.379168 9.174112,-9.707567 9.706862,-7.314335 21.99392,-9.695633 33.91857,-6.573594 8.17344,2.139921 16.66193,7.921326 21.44025,14.602671 0.89755,1.255019 1.73579,2.281851 1.86275,2.281851 0.12697,0 1.30202,-0.540125 2.61124,-1.200276 8.73273,-4.403363 19.0189,-4.341789 27.74322,0.166068 9.30839,4.809646 15.68152,14.092413 16.62191,24.210617 0.15215,1.63706 0.29581,2.06545 0.69263,2.06545 1.06656,0 4.22215,0.97699 6.26186,1.9387 2.55832,1.20625 5.55665,3.87357 7.19505,6.40074 2.81337,4.33951 3.58409,10.37101 1.94608,15.22978 -4.44982,13.19944 -19.85558,20.358376 -43.66581,20.291176 -8.83351,-0.0249 -17.1766,-1.186736 -25.39392,-3.536196 -3.65892,-1.04615 -8.46589,-2.70571 -9.22442,-3.18464 -0.33258,-0.20999 -0.27286,-1.1332 0.33409,-5.16434 0.40649,-2.69975 0.63217,-4.90863 0.50151,-4.90863 -0.38194,0 -0.49897,0.62777 -1.78581,9.57974 -2.332,16.222656 -3.03408,23.502116 -3.31447,34.365416 l -0.19624,7.60297 -2.58501,0.35722 c -1.42175,0.19647 -3.30349,0.36754 -4.18163,0.38015 l -1.59663,0.0229 v -2.65123 c 0,-3.6407 0.51432,-12.4773 1.35909,-23.35092 0.38984,-5.01796 0.65409,-9.18059 0.58722,-9.25028 -0.0669,-0.0697 -0.19696,-0.0513 -0.28908,0.0408 -0.38176,0.38176 -2.26546,27.83471 -2.26546,33.01661 v 2.49917 h -4.8659 -4.865897 l -0.003,-6.00634 c -0.004,-6.55013 -0.57597,-17.41046 -1.517179,-28.78647 -0.556678,-6.728346 -0.704969,-7.797336 -1.034084,-7.454356 -0.06688,0.0697 0.198657,4.23233 0.590074,9.250276 1.039323,13.32407 1.356229,19.55455 1.356229,26.66405 0,4.88684 -0.0868,6.32286 -0.38015,6.28914 -0.209081,-0.024 -1.474977,-0.14164 -2.8131,-0.26133 z"
         id="path1056" />
      <path
         style="fill:#4d4d4d;stroke:none;stroke-width:0.412644;stroke-linejoin:bevel;stroke-opacity:1"
         d="m 96.180605,139.5326 c -8.856752,-0.8358 -15.042007,-1.95356 -20.065666,-3.62616 -7.937482,-2.64273 -12.779161,-6.40935 -12.779161,-9.94164 0,-1.68739 1.378963,-3.96557 3.782007,-6.24822 3.558654,-3.38038 7.548012,-5.00443 16.234047,-6.60884 4.699048,-0.86797 5.225804,-0.8999 5.225804,-0.31683 0,0.29688 -0.923679,0.64003 -2.965159,1.10154 -3.641457,0.82323 -8.120708,2.39167 -10.042612,3.51649 -2.020594,1.18258 -4.497665,3.6066 -5.228706,5.11673 -1.17371,2.42456 -0.711721,4.10347 1.71758,6.24182 3.429362,3.01865 10.266357,5.26829 20.016263,6.58615 5.443532,0.73578 18.158218,0.74164 23.692398,0.0109 15.08407,-1.99168 23.94898,-6.64091 22.41636,-11.75634 -0.59999,-2.00258 -3.36544,-4.69253 -6.23794,-6.06763 -2.43364,-1.16499 -7.34413,-2.54249 -10.44733,-2.93069 -1.42103,-0.17776 -1.59662,-0.27903 -1.59662,-0.92084 0,-0.94351 0.29518,-0.93316 5.93031,0.20781 8.69905,1.76135 12.94078,3.61929 16.18801,7.09059 3.49911,3.74055 3.59825,6.16815 0.38123,9.33455 -4.60126,4.52882 -15.70512,7.97532 -29.28276,9.08898 -3.53776,0.29017 -14.330684,0.36766 -16.938055,0.12161 z"
         id="path1058" />
    </g>
  </g>
</svg>
